<svg id="Layer_1" data-name="Layer 1" xmlns="http://www.w3.org/2000/svg" viewBox="0 0 659.12 79.6"><defs><style>.cls-1{fill:#424649;}</style></defs><title>pbdesignlogo</title><path class="cls-1" d="M45.58,68.37h-11a1.42,1.42,0,0,0-1.42,1.42V97.74a1.41,1.41,0,0,1-1.41,1.41H24a1.41,1.41,0,0,1-1.42-1.41V23.61A1.42,1.42,0,0,1,24,22.19H45.58c12.42,0,27.15,6.16,27.15,23C72.73,62.21,58.11,68.37,45.58,68.37ZM45,31.65H34.57a1.43,1.43,0,0,0-1.42,1.42V57.5a1.42,1.42,0,0,0,1.42,1.41h8.26c10.66,0,18.69-3.52,18.69-13.41C61.52,36.82,54.81,31.65,45,31.65Z" transform="translate(-22.6 -20.88)"/><path class="cls-1" d="M142.1,97.74V65.61a1.43,1.43,0,0,0-1.42-1.42H102.84a1.42,1.42,0,0,0-1.42,1.42V97.74A1.42,1.42,0,0,1,100,99.15H92.28a1.42,1.42,0,0,1-1.42-1.41V23.61a1.43,1.43,0,0,1,1.42-1.42H100a1.43,1.43,0,0,1,1.42,1.42V53.32a1.42,1.42,0,0,0,1.42,1.42h37.84a1.43,1.43,0,0,0,1.42-1.42V23.61a1.42,1.42,0,0,1,1.41-1.42h7.72a1.42,1.42,0,0,1,1.42,1.42V97.74a1.41,1.41,0,0,1-1.42,1.41h-7.72A1.41,1.41,0,0,1,142.1,97.74Z" transform="translate(-22.6 -20.88)"/><path class="cls-1" d="M173.43,97.74V23.61a1.42,1.42,0,0,1,1.42-1.42h7.72A1.42,1.42,0,0,1,184,23.61V97.74a1.41,1.41,0,0,1-1.41,1.41h-7.72A1.41,1.41,0,0,1,173.43,97.74Z" transform="translate(-22.6 -20.88)"/><path class="cls-1" d="M204.77,97.74V23.61a1.42,1.42,0,0,1,1.41-1.42h7.72a1.42,1.42,0,0,1,1.42,1.42V88.28a1.43,1.43,0,0,0,1.42,1.42h30.59a1.41,1.41,0,0,1,1.41,1.42v6.62a1.41,1.41,0,0,1-1.41,1.41H206.18A1.41,1.41,0,0,1,204.77,97.74Z" transform="translate(-22.6 -20.88)"/><path class="cls-1" d="M298.21,22.65a.46.46,0,0,1,.45-.46h17.9c7.26,0,14.85,1.21,20.45,4.84,5.39,3.52,8.14,9.24,8.14,15.94,0,6.92-3,12.14-10.62,15.47a.45.45,0,0,0,.05.85c9.11,3.11,13.76,9.23,13.76,18A19.89,19.89,0,0,1,335.8,96.08c-5.82,2.42-13.3,3.07-20.22,3.07H298.66a.45.45,0,0,1-.45-.45Zm32,11.64c-4-2.53-9.57-2.86-16.16-2.86h-4.82a.46.46,0,0,0-.46.46V54.72a.46.46,0,0,0,.46.46h6.91c11.54,0,18.47-3.63,18.47-11.66C334.6,38.79,333,36.05,330.2,34.29Zm-9.13,30.12H309.22a.46.46,0,0,0-.46.46V89.46a.46.46,0,0,0,.46.46h5.37c6.37,0,12-.33,16.27-2.31,3.74-1.76,6.26-5,6.26-10.22C337.12,69.69,331.52,64.41,321.07,64.41Z" transform="translate(-22.6 -20.88)"/><path class="cls-1" d="M402.7,100.47c-22.43,0-39.58-17.81-39.58-39.8s17.15-39.79,39.58-39.79,39.58,17.81,39.58,39.79S425.13,100.47,402.7,100.47Zm0-70.14c-16.38,0-28.37,13.3-28.37,30.34S386.32,91,402.7,91s28.36-13.31,28.36-30.35S419.08,30.33,402.7,30.33Z" transform="translate(-22.6 -20.88)"/><path class="cls-1" d="M523.32,80.24h.22l15.87-57a1.43,1.43,0,0,1,1.37-1H549A1.42,1.42,0,0,1,550.4,24L529.22,98.13a1.4,1.4,0,0,1-1.36,1h-8.92a.79.79,0,0,1-.75-.53L503,40.54h-.22l-16.52,58.1a.78.78,0,0,1-.74.51h-8.7a1.41,1.41,0,0,1-1.37-1L455.1,24a1.42,1.42,0,0,1,1.36-1.8h8.71a1.42,1.42,0,0,1,1.37,1.06l15.11,57h.22l16-57.54a.81.81,0,0,1,.75-.52h8.78a.82.82,0,0,1,.75.53Z" transform="translate(-22.6 -20.88)"/><path class="cls-1" d="M568.49,97.74V23.61a1.42,1.42,0,0,1,1.42-1.42h43.34a1.42,1.42,0,0,1,1.41,1.42v6.62a1.41,1.41,0,0,1-1.41,1.42H580.46A1.43,1.43,0,0,0,579,33.07V53.32a1.43,1.43,0,0,0,1.42,1.42h32.79a1.41,1.41,0,0,1,1.41,1.41v6.63a1.41,1.41,0,0,1-1.41,1.41H580.46A1.43,1.43,0,0,0,579,65.61V88.28a1.43,1.43,0,0,0,1.42,1.42h32.79a1.41,1.41,0,0,1,1.41,1.42v6.62a1.41,1.41,0,0,1-1.41,1.41H569.91A1.41,1.41,0,0,1,568.49,97.74Z" transform="translate(-22.6 -20.88)"/><path class="cls-1" d="M637.74,97.74V23.61a1.43,1.43,0,0,1,1.42-1.42h7.72a1.43,1.43,0,0,1,1.42,1.42V88.28a1.42,1.42,0,0,0,1.41,1.42H680.3a1.42,1.42,0,0,1,1.42,1.42v6.62a1.42,1.42,0,0,1-1.42,1.41H639.16A1.42,1.42,0,0,1,637.74,97.74Z" transform="translate(-22.6 -20.88)"/><path class="cls-1" d="M658.33,79.38V23.61a1.42,1.42,0,0,1,1.41-1.42h7.72a1.42,1.42,0,0,1,1.42,1.42V69.92a1.41,1.41,0,0,0,1.42,1.42h10a1.42,1.42,0,0,1,1.42,1.42v6.62a1.43,1.43,0,0,1-1.42,1.42H659.74A1.42,1.42,0,0,1,658.33,79.38Z" transform="translate(-22.6 -20.88)"/></svg>